<svg xmlns="http://www.w3.org/2000/svg" viewBox="0 0 24 24" width="24" height="24">
  <path fill="#212B36" d="M12 22C6.477 22 2 17.523 2 12S6.477 2 12 2a9.99 9.99 0 0 1 8 4h-2.71a8 8 0 1 0 .001 12h2.71A9.99 9.99 0 0 1 12 22z" />
  <circle cx="7.5" cy="10.5" r="1.5" fill="#00AB55" />
  <circle cx="10.5" cy="5.5" r="1.5" fill="#00AB55" />
  <circle cx="15.5" cy="7.5" r="1.5" fill="#00AB55" />
  <path fill="#00AB55" d="M18.8 15.6c-.6 1.4-2.1 2.4-3.8 2.4-2.2 0-4-1.8-4-4s1.8-4 4-4c1.7 0 3.2 1 3.8 2.4h2.2c-.7-2.6-3.1-4.4-6-4.4-3.3 0-6 2.7-6 6s2.7 6 6 6c2.9 0 5.3-1.8 6-4.4h-2.2z" />
</svg>
